<svg width="36" height="32" viewBox="0 0 36 32" fill="none" xmlns="http://www.w3.org/2000/svg">
<path d="M17.5372 25.2496C17.2872 25.2481 17.0423 25.1788 16.8283 25.049L6.25391 18.4691V24.5374C6.25391 29.6428 11.5061 32 17.9766 32C24.447 32 29.6793 29.6428 29.6793 24.5374V18.3387L18.1763 25.059C17.9825 25.1753 17.7628 25.2408 17.5372 25.2496V25.2496Z" fill="white"/>
<path d="M35.2411 10.1441L18.2662 0.214117C18.0286 0.0739093 17.758 0 17.4824 0C17.2068 0 16.9362 0.0739093 16.6985 0.214117L0.722146 10.1441C0.501287 10.2818 0.319053 10.4738 0.192685 10.702C0.066318 10.9301 0 11.1869 0 11.448C0 11.7091 0.066318 11.9659 0.192685 12.1941C0.319053 12.4223 0.501287 12.6143 0.722146 12.7519L1.72067 13.3939V25.8916L2.89893 24.5476L4.32682 26.1825V14.9887L16.6985 22.702C16.9373 22.8541 17.2146 22.9341 17.4974 22.9327C17.7663 22.9315 18.0307 22.8625 18.2662 22.7321L35.2411 12.7921C35.4724 12.658 35.6643 12.4649 35.7976 12.2325C35.9308 12 36.0006 11.7363 36 11.4681C35.9986 11.2002 35.928 10.9374 35.7949 10.7052C35.6619 10.4731 35.471 10.2797 35.2411 10.1441V10.1441Z" fill="white"/>
<path d="M18.2062 25.0691C18.0027 25.1868 17.7721 25.249 17.5372 25.2496C17.3274 25.2463 17.1217 25.1912 16.9381 25.0891V31.9699C17.2776 31.9699 17.6271 31.9699 17.9366 31.9699C24.4171 31.9699 29.6693 29.6128 29.6693 24.5074V18.3387L18.2062 25.0691Z" fill="#BCBCBC"/>
<path d="M35.241 10.1441L18.2661 0.214116C18.0707 0.101715 17.8528 0.0344128 17.6283 0.0170644C17.4038 -0.000284073 17.1782 0.0327656 16.968 0.113822V22.8223C17.1356 22.8934 17.3154 22.9308 17.4972 22.9327C17.7662 22.9315 18.0306 22.8625 18.2661 22.7321L35.241 12.7921C35.4723 12.658 35.6642 12.4649 35.7975 12.2325C35.9307 12 36.0005 11.7363 35.9999 11.4681C35.9985 11.2002 35.9278 10.9374 35.7948 10.7052C35.6618 10.4731 35.4709 10.2797 35.241 10.1441V10.1441Z" fill="#BCBCBC"/>
</svg>
