<svg width="14" height="13" viewBox="0 0 14 13" fill="none" xmlns="http://www.w3.org/2000/svg">
<path d="M13.7946 10.3125H4.01784C3.94418 10.3125 3.88391 10.3728 3.88391 10.4464V11.3839C3.88391 11.4576 3.94418 11.5179 4.01784 11.5179H13.7946C13.8683 11.5179 13.9286 11.4576 13.9286 11.3839V10.4464C13.9286 10.3728 13.8683 10.3125 13.7946 10.3125ZM13.7946 0.803589H4.01784C3.94418 0.803589 3.88391 0.863857 3.88391 0.937517V1.87502C3.88391 1.94868 3.94418 2.00895 4.01784 2.00895H13.7946C13.8683 2.00895 13.9286 1.94868 13.9286 1.87502V0.937517C13.9286 0.863857 13.8683 0.803589 13.7946 0.803589ZM13.7946 5.55805H4.01784C3.94418 5.55805 3.88391 5.61832 3.88391 5.69198V6.62948C3.88391 6.70314 3.94418 6.76341 4.01784 6.76341H13.7946C13.8683 6.76341 13.9286 6.70314 13.9286 6.62948V5.69198C13.9286 5.61832 13.8683 5.55805 13.7946 5.55805Z" fill="#009ADD"/>
<path d="M2.00893 0H0.0669643C0.0301339 0 0 0.0301338 0 0.0669641V0.636161C0 0.672991 0.0301339 0.703125 0.0669643 0.703125H1.27902V1.04632H0.681362C0.644531 1.04632 0.614397 1.07645 0.614397 1.11328V1.68248C0.614397 1.71931 0.614397 1.11328 0.681362 1.74944H1.27902V2.10938H0.0669643C0.0301339 2.10938 0 2.13951 0 2.17634V2.74554C0 2.78237 0.0301339 2.8125 0.0669643 2.8125H2.00893C2.04576 2.8125 2.07589 2.78237 2.07589 2.74554V0.0669641C2.07589 0.0301338 2.04576 0 2.00893 0Z" fill="#009ADD"/>
<path d="M2.00893 4.5H0.0669643C0.0301339 4.5 0 4.53013 0 4.56696V5.16964C0 5.20647 0.0301339 5.23661 0.0669643 5.23661H1.21205L0.0351562 6.53739C0.0129587 6.56232 0.000479061 6.59441 0 6.62779V7.24554C0 7.28237 0.0301339 7.3125 0.0669643 7.3125H2.00893C2.04576 7.3125 2.07589 7.28237 2.07589 7.24554V6.64286C2.07589 6.60603 2.04576 6.57589 2.00893 6.57589H0.863839L2.04074 5.27511C2.06293 5.25018 2.07541 5.21809 2.07589 5.18471V4.56696C2.07589 4.53013 2.04576 4.5 2.00893 4.5Z" fill="#009ADD"/>
<path d="M0.0669643 10.2366H0.703125V12.2455C0.703125 12.2824 0.733259 12.3125 0.770089 12.3125H1.43973C1.47656 12.3125 1.5067 12.2824 1.5067 12.2455V9.63393C1.5067 9.56027 1.44643 9.5 1.37277 9.5H0.0669643C0.0301339 9.5 0 9.53013 0 9.56696V10.1696C0 10.2065 0.0301339 10.2366 0.0669643 10.2366Z" fill="#009ADD"/>
</svg>
