<svg width="200" height="36" viewBox="0 0 200 36" fill="none" xmlns="http://www.w3.org/2000/svg">
<path d="M0 26.8795V1.8683C0 1.34599 0.173065 0.903977 0.519196 0.5424C0.86532 0.180823 1.27944 0 1.76154 0H23.1411C23.6232 0 24.0311 0.187474 24.3649 0.562491C24.711 0.937508 24.8841 1.38617 24.8841 1.90848V3.79687C24.8841 4.31918 24.711 4.76784 24.3649 5.14286C24.0311 5.50443 23.6232 5.68526 23.1411 5.68526H6.99055V11.5312H20.8974C21.3796 11.5312 21.7875 11.7187 22.1212 12.0937C22.4674 12.4553 22.6404 12.8973 22.6404 13.4196V15.308C22.6404 15.8303 22.4674 16.279 22.1212 16.654C21.7875 17.0156 21.3796 17.1964 20.8974 17.1964H6.99055V23.1228H23.104C23.5737 23.1228 23.9755 23.3036 24.3093 23.6652C24.643 24.0267 24.8099 24.4688 24.8099 24.9911V26.9196C24.8099 27.4419 24.6368 27.8906 24.2907 28.2656C23.9446 28.6272 23.5305 28.808 23.0484 28.808H1.76154C1.27944 28.808 0.86532 28.6272 0.519196 28.2656C0.173065 27.8906 0 27.4286 0 26.8795ZM59.2619 19.5468V8.03568C59.2619 7.6741 59.367 7.37945 59.5771 7.15179C59.7997 6.9107 60.0716 6.79015 60.393 6.79015H64.5466C64.8681 6.79015 65.134 6.9107 65.3441 7.15179C65.5663 7.37945 65.6776 7.6741 65.6776 8.03568V19.5468C65.6776 22.7611 66.8517 24.3683 69.2005 24.3683C70.7461 24.3683 72.4087 23.404 74.1885 21.4754V8.03568C74.1885 7.6741 74.2936 7.37945 74.5037 7.15179C74.7265 6.9107 74.9986 6.79015 75.3195 6.79015H79.455C79.7886 6.79015 80.0607 6.9107 80.2708 7.15179C80.493 7.37945 80.6044 7.6741 80.6044 8.03568V27.5826C80.6044 27.9308 80.493 28.2254 80.2708 28.4665C80.0607 28.6942 79.7886 28.808 79.455 28.808H75.3195C74.9986 28.808 74.7265 28.6942 74.5037 28.4665C74.2936 28.2254 74.1885 27.9308 74.1885 27.5826V26.2969C72.0625 28.2388 69.7941 29.2098 67.3834 29.2098C64.9852 29.2098 63.032 28.4196 61.5238 26.8393C60.016 25.2455 59.2619 22.8147 59.2619 19.5468ZM89.1342 30.8973L91.5627 31.2388C93.3058 31.2388 94.5235 29.8526 95.2159 27.0804C93.1147 27.0804 91.3589 26.3973 89.9501 25.0312C88.5406 23.6518 87.3291 21.2076 86.3152 17.6986L83.5525 7.9955C83.5158 7.88839 83.4968 7.76784 83.4968 7.63392C83.4968 7.48663 83.5709 7.31246 83.7196 7.11161C83.8804 6.9107 84.1152 6.80359 84.4241 6.79015H88.2994C88.6583 6.79015 88.9982 6.92407 89.319 7.19198C89.6532 7.44645 89.8697 7.76784 89.9684 8.15623L92.3976 16.6741C93.0033 18.7634 93.6153 20.2098 94.233 21.0134C94.8634 21.817 95.6052 22.2187 96.4584 22.2187L100.148 8.15623C100.247 7.76784 100.439 7.44645 100.723 7.19198C101.02 6.92407 101.347 6.79015 101.706 6.79015H105.618C105.927 6.79015 106.156 6.89733 106.304 7.11161C106.453 7.3259 106.527 7.50665 106.527 7.65401C106.527 7.78793 106.514 7.90176 106.489 7.9955L101.632 26.7589C100.766 30.0804 99.6907 32.4509 98.4052 33.8705C97.1318 35.2902 95.4881 36 93.4729 36C91.4577 36 90.0304 35.9196 89.1893 35.7589C88.3614 35.5982 87.8424 35.3973 87.6317 35.1562C87.4216 34.9286 87.3165 34.6607 87.3165 34.3526V32.1429C87.3165 31.7812 87.4216 31.4799 87.6317 31.2388C87.8424 31.0112 88.114 30.8973 88.4481 30.8973H89.1342ZM109.549 26.9196V1.90848C109.549 1.38617 109.716 0.937508 110.05 0.562491C110.384 0.187474 110.791 0 111.274 0H125.422C132.901 0 136.64 3.73659 136.64 11.2098C136.64 18.6696 132.901 22.3995 125.422 22.3995H116.54V26.9196C116.54 27.4419 116.367 27.8906 116.021 28.2656C115.687 28.6272 115.279 28.808 114.797 28.808H111.311C110.829 28.808 110.415 28.6272 110.069 28.2656C109.722 27.8906 109.549 27.4419 109.549 26.9196ZM116.54 16.7143H123.308C125.385 16.7143 126.961 16.3393 128.036 15.5893C129.112 14.8259 129.649 13.3661 129.649 11.2098C129.649 9.04018 129.112 7.58037 128.036 6.83033C126.961 6.06693 125.385 5.68526 123.308 5.68526H116.54V16.7143ZM141.405 26.2768C139.502 24.3214 138.55 21.5089 138.55 17.8393C138.55 14.1562 139.508 11.3303 141.424 9.36158C143.34 7.37945 145.998 6.38839 149.397 6.38839C152.796 6.38839 155.448 7.35264 157.352 9.28121C159.256 11.1964 160.207 13.9487 160.207 17.538V18.683C160.207 19.0446 160.096 19.346 159.874 19.587C159.663 19.8147 159.391 19.9286 159.058 19.9286H145.096C145.219 21.5759 145.651 22.7746 146.393 23.5245C147.148 24.2746 148.346 24.6495 149.991 24.6495C151.635 24.6495 152.76 24.2478 153.365 23.4442C153.971 22.6406 154.719 22.2322 155.609 22.2187H158.372C158.705 22.2187 158.977 22.3393 159.188 22.5804C159.41 22.808 159.521 23.1027 159.521 23.4643C159.521 27.308 156.141 29.2232 149.379 29.2098C145.966 29.2098 143.309 28.2322 141.405 26.2768ZM145.058 15.6897H153.681C153.557 12.529 152.123 10.9487 149.379 10.9487C146.647 10.9487 145.206 12.529 145.058 15.6897ZM173.298 24.4487L175.839 24.2076H176.525C176.859 24.2076 177.131 24.3214 177.341 24.5491C177.563 24.7768 177.674 25.0714 177.674 25.433V27.5826C177.674 27.8772 177.563 28.1451 177.341 28.3862C177.131 28.6138 176.859 28.7545 176.525 28.808C175.264 29.0759 173.62 29.2098 171.593 29.2098C166.277 29.2098 163.619 26.1964 163.619 20.1696V1.24553C163.619 0.883886 163.724 0.589303 163.934 0.361577C164.157 0.120549 164.429 0 164.75 0H168.904C169.225 0 169.491 0.120549 169.701 0.361577C169.924 0.589303 170.035 0.883886 170.035 1.24553V7.95531H175.209C175.529 7.95531 175.795 8.06921 176.005 8.29687C176.228 8.52453 176.34 8.81918 176.34 9.18082V11.5714C176.34 11.933 176.228 12.2277 176.005 12.4553C175.795 12.683 175.529 12.7969 175.209 12.7969H170.035V20.1696C170.035 21.5357 170.332 22.5937 170.925 23.3437C171.519 24.0804 172.31 24.4487 173.298 24.4487ZM179.566 12.8772C179.566 8.55134 182.786 6.38839 189.226 6.38839C196.001 6.38839 199.388 8.31024 199.388 12.154C199.388 12.5022 199.283 12.7969 199.073 13.038C198.863 13.2656 198.59 13.3795 198.257 13.3795H195.494C194.604 13.3795 193.856 12.9777 193.25 12.1741C192.644 11.3571 191.452 10.9487 189.671 10.9487C187.224 10.9487 186 11.5915 186 12.8772C186 13.4799 186.476 13.9821 187.428 14.3839C188.392 14.7857 189.56 15.1406 190.932 15.4487C192.317 15.7433 193.696 16.125 195.068 16.5937C196.44 17.0625 197.601 17.8125 198.553 18.8438C199.518 19.8616 200 21.154 200 22.7209C200 27.0468 196.6 29.2098 189.801 29.2098C183.002 29.2098 179.603 27.2947 179.603 23.4643C179.603 23.1027 179.708 22.808 179.918 22.5804C180.141 22.3393 180.419 22.2187 180.752 22.2187H183.516C184.406 22.2187 185.154 22.6272 185.759 23.4442C186.365 24.2478 187.557 24.6495 189.338 24.6495C192.168 24.6495 193.584 24.0067 193.584 22.7209C193.584 22.1183 193.102 21.616 192.138 21.2143C191.186 20.8125 190.018 20.4576 188.633 20.1495C187.249 19.8281 185.87 19.4397 184.498 18.9843C183.138 18.5156 181.976 17.7656 181.012 16.7344C180.048 15.7031 179.566 14.4174 179.566 12.8772Z" fill="#9CC914"/>
<path fill-rule="evenodd" clip-rule="evenodd" d="M28.8806 0.570792C28.5345 0.945809 28.3614 1.39447 28.3614 1.91678V16.7611L30.7417 12.9172L32.7706 9.69844C33.9839 7.77376 35.3707 5.96416 36.9138 4.29232C36.963 4.23909 37.0515 4.2801 37.0426 4.352L36.8732 5.72861C36.8547 5.87877 37.053 5.94936 37.1336 5.82132C37.5656 5.13489 38.3198 4.7184 39.1308 4.7184H39.2036L38.3092 6.58175L39.2036 8.44511L39.3976 8.85324C40.0299 10.1829 41.0872 11.2639 42.4024 11.9255L44.0385 12.7485C44.1532 12.8062 44.2256 12.9237 44.2256 13.0522V13.4056C44.2256 14.2045 43.7804 14.9367 43.071 15.3042C42.7882 15.4508 42.4814 15.5456 42.1652 15.5842L41.1611 15.7068C38.9809 15.9729 36.9928 17.0859 35.6262 18.8054L35.3583 19.254C34.074 21.4043 33.6767 23.9698 34.2503 26.4078C34.496 27.4459 35.8868 27.6448 36.4136 26.7173L36.5893 26.4078L38.3092 22.2339L38.6216 21.6418C39.1315 20.675 39.9596 19.914 40.9659 19.4873C40.9784 19.482 40.9923 19.4912 40.9923 19.5048V20.7331C40.9923 20.8047 41.0845 20.8335 41.1253 20.7747L41.3225 20.4899C41.644 20.0254 42.1075 19.6777 42.6434 19.4991C42.6772 19.4878 42.7121 19.513 42.7121 19.5486V21.9242C42.7121 22.019 42.7757 22.1021 42.8672 22.1269L43.2181 22.2219C43.7712 22.3717 44.2331 22.7521 44.4861 23.2661L44.5033 23.301C44.5929 23.4832 44.6571 23.6768 44.694 23.8764L44.6974 23.8953C44.8278 24.6013 45.378 25.155 46.0831 25.2898V25.5976C46.0831 26.4642 45.6084 27.2613 44.8464 27.6741C44.8453 27.6746 44.8442 27.675 44.843 27.6751L44.332 27.7367C43.8664 27.7927 43.4404 28.0264 43.143 28.3889C43.0863 28.458 43.0513 28.5422 43.0422 28.631L43.0231 28.8163H46.0695C48.8261 28.8163 51.1502 28.0663 53.0415 26.5664C54.9452 25.0529 55.897 22.8431 55.897 19.9369C55.897 17.0306 54.7103 14.8878 52.3369 13.5083C54.0057 12.035 54.8401 10.3141 54.8401 8.34535C54.8401 6.36323 54.3518 4.73596 53.3752 3.46368C51.6199 1.1601 48.8942 0.00830078 45.198 0.00830078H30.123C29.6409 0.00830078 29.2267 0.195775 28.8806 0.570792Z" fill="#9CC914"/>
</svg>
