<svg width="100" height="18" viewBox="0 0 100 18" fill="none" xmlns="http://www.w3.org/2000/svg">
<path d="M0 13.4397V0.934149C0 0.672994 0.0865326 0.451989 0.259598 0.2712C0.43266 0.0904116 0.639719 0 0.880772 0H11.5706C11.8116 0 12.0156 0.0937369 12.1824 0.281245C12.3555 0.468754 12.4421 0.693086 12.4421 0.95424V1.89843C12.4421 2.15959 12.3555 2.38392 12.1824 2.57143C12.0156 2.75222 11.8116 2.84263 11.5706 2.84263H3.49528V5.76562H10.4487C10.6898 5.76562 10.8937 5.85936 11.0606 6.04687C11.2337 6.22766 11.3202 6.44866 11.3202 6.70982V7.65401C11.3202 7.91517 11.2337 8.1395 11.0606 8.32701C10.8937 8.50779 10.6898 8.59821 10.4487 8.59821H3.49528V11.5614H11.552C11.7869 11.5614 11.9877 11.6518 12.1546 11.8326C12.3215 12.0134 12.405 12.2344 12.405 12.4955V13.4598C12.405 13.721 12.3184 13.9453 12.1454 14.1328C11.9723 14.3136 11.7652 14.404 11.5242 14.404H0.880772C0.639719 14.404 0.43266 14.3136 0.259598 14.1328C0.0865326 13.9453 0 13.7143 0 13.4397ZM29.631 9.77342V4.01784C29.631 3.83705 29.6835 3.68973 29.7886 3.5759C29.8998 3.45535 30.0358 3.39507 30.1965 3.39507H32.2733C32.4341 3.39507 32.567 3.45535 32.672 3.5759C32.7831 3.68973 32.8388 3.83705 32.8388 4.01784V9.77342C32.8388 11.3806 33.4259 12.1841 34.6002 12.1841C35.373 12.1841 36.2044 11.702 37.0942 10.7377V4.01784C37.0942 3.83705 37.1468 3.68973 37.2518 3.5759C37.3632 3.45535 37.4993 3.39507 37.6598 3.39507H39.7275C39.8943 3.39507 40.0304 3.45535 40.1354 3.5759C40.2465 3.68973 40.3022 3.83705 40.3022 4.01784V13.7913C40.3022 13.9654 40.2465 14.1127 40.1354 14.2333C40.0304 14.3471 39.8943 14.404 39.7275 14.404H37.6598C37.4993 14.404 37.3632 14.3471 37.2518 14.2333C37.1468 14.1127 37.0942 13.9654 37.0942 13.7913V13.1484C36.0313 14.1194 34.8971 14.6049 33.6917 14.6049C32.4926 14.6049 31.516 14.2098 30.7619 13.4196C30.008 12.6228 29.631 11.4074 29.631 9.77342ZM44.5671 15.4487L45.7814 15.6194C46.6529 15.6194 47.2618 14.9263 47.608 13.5402C46.5573 13.5402 45.6795 13.1987 44.975 12.5156C44.2703 11.8259 43.6646 10.6038 43.1576 8.84932L41.7763 3.99775C41.7579 3.94419 41.7484 3.88392 41.7484 3.81696C41.7484 3.74331 41.7854 3.65623 41.8598 3.55581C41.9402 3.45535 42.0576 3.40179 42.212 3.39507H44.1497C44.3291 3.39507 44.4991 3.46203 44.6595 3.59599C44.8266 3.72322 44.9348 3.88392 44.9842 4.07811L46.1988 8.33705C46.5016 9.3817 46.8076 10.1049 47.1165 10.5067C47.4317 10.9085 47.8026 11.1094 48.2292 11.1094L50.0741 4.07811C50.1235 3.88392 50.2194 3.72322 50.3615 3.59599C50.5099 3.46203 50.6735 3.39507 50.8529 3.39507H52.809C52.9637 3.39507 53.078 3.44866 53.152 3.55581C53.2264 3.66295 53.2634 3.75333 53.2634 3.82701C53.2634 3.89397 53.2571 3.95088 53.2447 3.99775L50.8159 13.3795C50.383 15.0402 49.8453 16.2254 49.2026 16.9353C48.5659 17.6451 47.744 18 46.7364 18C45.7288 18 45.0152 17.9598 44.5946 17.8795C44.1807 17.7991 43.9212 17.6987 43.8158 17.5781C43.7108 17.4643 43.6582 17.3304 43.6582 17.1763V16.0714C43.6582 15.8906 43.7108 15.74 43.8158 15.6194C43.9212 15.5056 44.057 15.4487 44.2241 15.4487H44.5671ZM54.7745 13.4598V0.95424C54.7745 0.693086 54.858 0.468754 55.0248 0.281245C55.1919 0.0937369 55.3957 0 55.6369 0H62.711C66.4503 0 68.3199 1.8683 68.3199 5.60489C68.3199 9.3348 66.4503 11.1998 62.711 11.1998H58.2698V13.4598C58.2698 13.721 58.1834 13.9453 58.0103 14.1328C57.8435 14.3136 57.6394 14.404 57.3983 14.404H55.6555C55.4144 14.404 55.2074 14.3136 55.0343 14.1328C54.8612 13.9453 54.7745 13.721 54.7745 13.4598ZM58.2698 8.35714H61.654C62.6923 8.35714 63.4803 8.16963 64.018 7.79465C64.5559 7.41295 64.8246 6.68304 64.8246 5.60489C64.8246 4.52009 64.5559 3.79018 64.018 3.41517C63.4803 3.03346 62.6923 2.84263 61.654 2.84263H58.2698V8.35714ZM70.7025 13.1384C69.7509 12.1607 69.275 10.7545 69.275 8.91963C69.275 7.07811 69.7538 5.66517 70.712 4.68079C71.6699 3.68973 72.9988 3.19419 74.6985 3.19419C76.3982 3.19419 77.7241 3.67632 78.676 4.64061C79.6279 5.59821 80.1036 6.97433 80.1036 8.76898V9.34152C80.1036 9.52231 80.0482 9.673 79.9368 9.79351C79.8317 9.90737 79.6957 9.96429 79.5289 9.96429H72.5478C72.6095 10.7879 72.8257 11.3873 73.1965 11.7623C73.5738 12.1373 74.1731 12.3248 74.9953 12.3248C75.8175 12.3248 76.3798 12.1239 76.6827 11.7221C76.9855 11.3203 77.3596 11.1161 77.8045 11.1094H79.1858C79.3526 11.1094 79.4887 11.1696 79.5938 11.2902C79.7052 11.404 79.7605 11.5513 79.7605 11.7321C79.7605 13.654 78.0703 14.6116 74.6893 14.6049C72.9832 14.6049 71.6544 14.1161 70.7025 13.1384ZM72.5291 7.84485H76.8403C76.7785 6.26451 76.0614 5.47433 74.6893 5.47433C73.3234 5.47433 72.6032 6.26451 72.5291 7.84485ZM86.6492 12.2243L87.9195 12.1038H88.2625C88.4293 12.1038 88.5654 12.1607 88.6704 12.2746C88.7815 12.3884 88.8372 12.5357 88.8372 12.7165V13.7913C88.8372 13.9386 88.7815 14.0725 88.6704 14.1931C88.5654 14.3069 88.4293 14.3772 88.2625 14.404C87.6321 14.5379 86.81 14.6049 85.7964 14.6049C83.1384 14.6049 81.8096 13.0982 81.8096 10.0848V0.622766C81.8096 0.441943 81.8621 0.294651 81.9672 0.180789C82.0786 0.0602743 82.2144 0 82.3751 0H84.452C84.6125 0 84.7454 0.0602743 84.8505 0.180789C84.9619 0.294651 85.0176 0.441943 85.0176 0.622766V3.97766H87.6043C87.7647 3.97766 87.8976 4.03461 88.0027 4.14843C88.1141 4.26226 88.1698 4.40959 88.1698 4.59041V5.78571C88.1698 5.9665 88.1141 6.11383 88.0027 6.22766C87.8976 6.34152 87.7647 6.39843 87.6043 6.39843H85.0176V10.0848C85.0176 10.7678 85.166 11.2969 85.4625 11.6719C85.7593 12.0402 86.1549 12.2243 86.6492 12.2243ZM89.7828 6.43862C89.7828 4.27567 91.3929 3.19419 94.6132 3.19419C98.0003 3.19419 99.694 4.15512 99.694 6.07701C99.694 6.25111 99.6415 6.39843 99.5364 6.51898C99.4313 6.63281 99.2952 6.68973 99.1285 6.68973H97.7468C97.3019 6.68973 96.9281 6.48885 96.625 6.08705C96.3221 5.67857 95.7259 5.47433 94.8357 5.47433C93.612 5.47433 92.9999 5.79576 92.9999 6.43862C92.9999 6.73996 93.2379 6.99106 93.7139 7.19194C94.1961 7.39286 94.78 7.57032 95.4661 7.72433C96.1585 7.87166 96.8478 8.06249 97.5338 8.29687C98.2199 8.53125 98.8006 8.90623 99.2766 9.42189C99.7589 9.93079 100 10.577 100 11.3605C100 13.5234 98.3 14.6049 94.9006 14.6049C91.5012 14.6049 89.8015 13.6473 89.8015 11.7321C89.8015 11.5513 89.854 11.404 89.9591 11.2902C90.0705 11.1696 90.2094 11.1094 90.3762 11.1094H91.7578C92.2028 11.1094 92.5768 11.3136 92.8797 11.7221C93.1825 12.1239 93.7787 12.3248 94.6689 12.3248C96.0841 12.3248 96.7921 12.0033 96.7921 11.3605C96.7921 11.0591 96.5509 10.808 96.0689 10.6071C95.593 10.4062 95.0088 10.2288 94.3167 10.0748C93.6243 9.91406 92.935 9.71986 92.249 9.49217C91.5692 9.2578 90.9882 8.88281 90.5062 8.36719C90.0239 7.85157 89.7828 7.20871 89.7828 6.43862Z" fill="#9CC914"/>
<path fill-rule="evenodd" clip-rule="evenodd" d="M14.4403 0.285364C14.2672 0.472873 14.1807 0.697205 14.1807 0.958359V8.38069L15.3709 6.45869L16.3853 4.84934C16.9919 3.88699 17.6854 2.9822 18.4569 2.14627C18.4815 2.11966 18.5257 2.14016 18.5213 2.17611L18.4366 2.86442C18.4274 2.9395 18.5265 2.97479 18.5668 2.91077C18.7828 2.56756 19.1599 2.35931 19.5654 2.35931H19.6018L19.1546 3.29099L19.6018 4.22267L19.6988 4.42673C20.0149 5.09155 20.5436 5.63207 21.2012 5.96287L22.0192 6.37434C22.0766 6.40321 22.1128 6.46196 22.1128 6.52619V6.70291C22.1128 7.10234 21.8902 7.46847 21.5355 7.65223C21.3941 7.72551 21.2407 7.77292 21.0826 7.79222L20.5806 7.85351C19.4905 7.98658 18.4964 8.54307 17.8131 9.40279L17.6791 9.6271C17.037 10.7022 16.8384 11.985 17.1252 13.204C17.248 13.723 17.9434 13.8225 18.2068 13.3588L18.2947 13.204L19.1546 11.1171L19.3108 10.821C19.5657 10.3376 19.9798 9.9571 20.4829 9.74379C20.4892 9.74113 20.4961 9.74573 20.4961 9.75252V10.3667C20.4961 10.4025 20.5423 10.4169 20.5626 10.3875L20.6612 10.245C20.822 10.0128 21.0538 9.83898 21.3217 9.74965C21.3386 9.74401 21.3561 9.7566 21.3561 9.77442V10.9622C21.3561 11.0096 21.3878 11.0511 21.4336 11.0635L21.6091 11.1111C21.8856 11.186 22.1165 11.3762 22.2431 11.6332L22.2516 11.6506C22.2965 11.7417 22.3286 11.8385 22.347 11.9383L22.3487 11.9478C22.4139 12.3008 22.689 12.5776 23.0416 12.645V12.7989C23.0416 13.2322 22.8042 13.6307 22.4232 13.8371C22.4227 13.8374 22.4221 13.8376 22.4215 13.8377L22.166 13.8684C21.9332 13.8965 21.7202 14.0133 21.5715 14.1946C21.5432 14.2291 21.5256 14.2712 21.5211 14.3156L21.5116 14.4081H23.0348C24.4131 14.4081 25.5751 14.0331 26.5208 13.2832C27.4726 12.5264 27.9485 11.4215 27.9485 9.96841C27.9485 8.51528 27.3552 7.44385 26.1684 6.75412C27.0028 6.01749 27.4201 5.15702 27.4201 4.17265C27.4201 3.18158 27.1759 2.36795 26.6876 1.73181C25.8099 0.580016 24.4471 0.00411892 22.599 0.00411892H15.0615C14.8204 0.00411892 14.6134 0.0978558 14.4403 0.285364Z" fill="#9CC914"/>
</svg>
