<svg width="301" height="224" viewBox="0 0 301 224" fill="none" xmlns="http://www.w3.org/2000/svg">
<g clip-path="url(#clip0)">
<path d="M300.583 196.849H0V197H300.583V196.849Z" fill="#EBEBEB"/>
<path d="M270.466 206.526H250.554V206.676H270.466V206.526Z" fill="#EBEBEB"/>
<path d="M199.118 208.157H193.892V208.308H199.118V208.157Z" fill="#EBEBEB"/>
<path d="M249.952 200.943H238.414V201.094H249.952V200.943Z" fill="#EBEBEB"/>
<path d="M57.503 201.953H31.5366V202.104H57.503V201.953Z" fill="#EBEBEB"/>
<path d="M66.6627 201.953H62.8555V202.104H66.6627V201.953Z" fill="#EBEBEB"/>
<path d="M135.351 204.492H79.0361V204.642H135.351V204.492Z" fill="#EBEBEB"/>
<path d="M142.485 170.038H26.4002C25.4904 170.037 24.6182 169.675 23.9749 169.032C23.3316 168.389 22.9698 167.517 22.9688 166.607V3.43122C22.9698 2.52149 23.3317 1.64934 23.975 1.00609C24.6183 0.362838 25.4905 0.00101505 26.4002 0H142.485C143.394 0.00113126 144.266 0.363008 144.91 1.00625C145.553 1.6495 145.915 2.52158 145.916 3.43122V166.607C145.915 167.517 145.553 168.389 144.91 169.032C144.266 169.675 143.394 170.037 142.485 170.038V170.038ZM26.4002 0.150292C25.5303 0.151232 24.6963 0.497196 24.0812 1.11228C23.4661 1.72736 23.12 2.56133 23.119 3.43122V166.607C23.12 167.477 23.466 168.311 24.0811 168.926C24.6962 169.541 25.5303 169.887 26.4002 169.888H142.485C143.355 169.887 144.188 169.541 144.803 168.926C145.418 168.311 145.764 167.477 145.765 166.607V3.43122C145.764 2.56142 145.418 1.72752 144.803 1.11244C144.188 0.497367 143.355 0.151347 142.485 0.150292H26.4002Z" fill="#EBEBEB"/>
<path d="M272.515 170.038H156.431C155.521 170.037 154.649 169.675 154.006 169.032C153.362 168.389 153.001 167.517 153 166.607V3.43122C153.001 2.52158 153.363 1.6495 154.006 1.00625C154.649 0.363008 155.521 0.00113126 156.431 0H272.515C273.425 0.00100232 274.297 0.362818 274.94 1.00607C275.584 1.64932 275.945 2.52148 275.947 3.43122V166.607C275.946 167.517 275.584 168.389 274.94 169.032C274.297 169.675 273.425 170.037 272.515 170.038ZM156.431 0.150292C155.561 0.151347 154.727 0.497367 154.112 1.11244C153.497 1.72752 153.151 2.56142 153.15 3.43122V166.607C153.151 167.477 153.497 168.311 154.112 168.926C154.727 169.541 155.561 169.887 156.431 169.888H272.515C273.385 169.887 274.219 169.541 274.834 168.926C275.449 168.311 275.795 167.477 275.796 166.607V3.43122C275.795 2.56132 275.449 1.72734 274.834 1.11226C274.219 0.497177 273.385 0.151219 272.515 0.150292H156.431Z" fill="#EBEBEB"/>
<path d="M174.152 71.6025L256.982 71.6025V17.3611L174.152 17.3611V71.6025Z" fill="#E6E6E6"/>
<path d="M171.625 71.6025L255.801 71.6025V17.3611L171.625 17.3611V71.6025Z" fill="#F0F0F0"/>
<path d="M174.152 82.2477L256.982 82.2477V71.6025L174.152 71.6025V82.2477Z" fill="#E6E6E6"/>
<path d="M167.415 82.2477L251.59 82.2477V71.6025L167.415 71.6025V82.2477Z" fill="#F0F0F0"/>
<path d="M252.263 68.0643V20.8993L175.163 20.8993V68.0643H252.263Z" fill="#FAFAFA"/>
<path d="M234.877 68.0647L225.03 20.8995H209.664L219.511 68.0647H234.877Z" fill="white"/>
<path d="M250.624 64.5429C250.691 64.5429 250.756 64.5163 250.803 64.4689C250.851 64.4215 250.877 64.3572 250.877 64.2902V23.2014C250.877 23.1344 250.851 23.0701 250.803 23.0226C250.756 22.9752 250.691 22.9486 250.624 22.9486C250.557 22.9486 250.493 22.9752 250.446 23.0226C250.398 23.0701 250.372 23.1344 250.372 23.2014V64.2902C250.372 64.3572 250.398 64.4215 250.446 64.4689C250.493 64.5163 250.557 64.5429 250.624 64.5429V64.5429Z" fill="#F0F0F0"/>
<path d="M216.21 68.0647L206.363 20.8995H200.371L210.219 68.0647H216.21Z" fill="white"/>
<path d="M175.613 68.0643V20.8993H175.163V68.0643H175.613Z" fill="#E6E6E6"/>
<path opacity="0.6" d="M170.789 26.2343H253.618L253.943 22.2744H171.114L170.789 26.2343Z" fill="#EBEBEB"/>
<path opacity="0.6" d="M170.789 32.7281H253.618L253.943 28.7688H171.114L170.789 32.7281Z" fill="#EBEBEB"/>
<path opacity="0.6" d="M170.789 39.222H253.618L253.943 35.2627H171.114L170.789 39.222Z" fill="#EBEBEB"/>
<path opacity="0.6" d="M170.789 45.7157H253.618L253.943 41.7559H171.114L170.789 45.7157Z" fill="#EBEBEB"/>
<path opacity="0.6" d="M170.789 52.2095H253.618L253.943 48.2502H171.114L170.789 52.2095Z" fill="#EBEBEB"/>
<path opacity="0.6" d="M170.789 58.7034H253.618L253.943 54.7441H171.114L170.789 58.7034Z" fill="#EBEBEB"/>
<path d="M245.088 157.403H227.721V160.827H245.088V157.403Z" fill="#E6E6E6"/>
<path d="M194.963 196.849H198.169V118.058H194.963V196.849Z" fill="#E6E6E6"/>
<path d="M183.858 160.827H227.721V157.403H183.858V160.827Z" fill="#F5F5F5"/>
<path d="M245.088 176.139H227.721V179.563H245.088V176.139Z" fill="#E6E6E6"/>
<path d="M183.858 179.563H227.721V176.139H183.858V179.563Z" fill="#F5F5F5"/>
<path d="M245.088 119.93H227.721V123.354H245.088V119.93Z" fill="#E6E6E6"/>
<path d="M183.858 123.354H227.721V119.93H183.858V123.354Z" fill="#F5F5F5"/>
<path d="M245.088 138.666H227.721V142.09H245.088V138.666Z" fill="#E6E6E6"/>
<path d="M183.858 142.09H227.721V138.666H183.858V142.09Z" fill="#F5F5F5"/>
<path d="M238.826 196.849H242.032V118.058H238.826V196.849Z" fill="#E6E6E6"/>
<path d="M224.515 196.849H227.721V118.058H224.515V196.849Z" fill="#F5F5F5"/>
<path d="M183.858 196.849H187.064V118.058H183.858V196.849Z" fill="#F5F5F5"/>
<path d="M39.3005 196.85H72.1108L72.1108 133.191H39.3005L39.3005 196.85Z" fill="#E6E6E6"/>
<path d="M48.0621 196.85H39.3007V188.062H57.2479L48.0621 196.85Z" fill="#FAFAFA"/>
<path d="M128.76 196.85H161.57V133.191H128.76V196.85Z" fill="#E6E6E6"/>
<path d="M39.3005 193.825H136.406V133.191H39.3005L39.3005 193.825Z" fill="#FAFAFA"/>
<path d="M127.645 196.85H136.407V188.062H118.459L127.645 196.85Z" fill="#FAFAFA"/>
<path d="M46.0972 170.959H129.61V155.785H46.0972V170.959Z" fill="#F0F0F0"/>
<path d="M46.0972 189.376H129.61V174.202H46.0972V189.376Z" fill="#F0F0F0"/>
<path d="M113.736 157.408H61.9707C61.6094 157.408 61.2516 157.336 60.9178 157.198C60.584 157.06 60.2807 156.857 60.0253 156.602C59.7698 156.346 59.5671 156.043 59.4289 155.709C59.2906 155.375 59.2194 155.018 59.2194 154.656V154.471H116.487V154.656C116.487 155.018 116.416 155.375 116.278 155.709C116.14 156.043 115.937 156.346 115.681 156.602C115.426 156.857 115.123 157.06 114.789 157.198C114.455 157.336 114.097 157.408 113.736 157.408Z" fill="#FAFAFA"/>
<path d="M46.0972 152.542H129.61V137.368H46.0972V152.542Z" fill="#F0F0F0"/>
<path d="M113.736 138.991H61.9707C61.6094 138.991 61.2516 138.919 60.9178 138.781C60.584 138.643 60.2807 138.44 60.0253 138.185C59.7698 137.929 59.5671 137.626 59.4289 137.292C59.2906 136.958 59.2194 136.601 59.2194 136.239V136.054H116.487V136.239C116.487 136.601 116.416 136.958 116.278 137.292C116.14 137.626 115.937 137.929 115.681 138.185C115.426 138.44 115.123 138.643 114.789 138.781C114.455 138.919 114.097 138.991 113.736 138.991Z" fill="#FAFAFA"/>
<path d="M113.736 175.825H61.9706C61.241 175.825 60.5412 175.535 60.0252 175.019C59.5093 174.503 59.2194 173.803 59.2194 173.074V172.888H116.487V173.074C116.487 173.803 116.197 174.503 115.682 175.019C115.166 175.535 114.466 175.825 113.736 175.825V175.825Z" fill="#FAFAFA"/>
<path d="M44.5273 71.6025L127.357 71.6025V17.3611L44.5273 17.3611V71.6025Z" fill="#E6E6E6"/>
<path d="M42.0001 71.6025L126.176 71.6025V17.3611L42.0001 17.3611V71.6025Z" fill="#F0F0F0"/>
<path d="M44.5273 82.2477L127.357 82.2477V71.6025L44.5273 71.6025V82.2477Z" fill="#E6E6E6"/>
<path d="M37.7897 82.2477L121.965 82.2477V71.6025L37.7897 71.6025V82.2477Z" fill="#F0F0F0"/>
<path d="M122.637 68.0643V20.8993L45.5381 20.8993V68.0643H122.637Z" fill="#FAFAFA"/>
<path d="M105.252 68.0647L95.4046 20.8995H80.0382L89.8859 68.0647H105.252Z" fill="white"/>
<path d="M120.999 64.5429C121.033 64.5429 121.065 64.5363 121.096 64.5236C121.127 64.5109 121.155 64.4923 121.178 64.4689C121.202 64.4454 121.22 64.4175 121.233 64.3869C121.246 64.3562 121.252 64.3233 121.252 64.2901V23.2014C121.252 23.1343 121.225 23.07 121.178 23.0226C121.131 22.9752 121.066 22.9486 120.999 22.9486C120.932 22.9486 120.868 22.9752 120.821 23.0226C120.773 23.07 120.747 23.1343 120.747 23.2014V64.2901C120.747 64.3572 120.773 64.4215 120.821 64.4689C120.868 64.5163 120.932 64.5429 120.999 64.5429V64.5429Z" fill="#F0F0F0"/>
<path d="M86.5848 68.0647L76.7371 20.8995H70.7465L80.5942 68.0647H86.5848Z" fill="white"/>
<path d="M45.9875 68.0643V20.8993H45.5382V68.0643H45.9875Z" fill="#E6E6E6"/>
<path opacity="0.6" d="M41.1631 26.2343H123.992L124.318 22.2744H41.4889L41.1631 26.2343Z" fill="#EBEBEB"/>
<path opacity="0.6" d="M41.1631 28.4677H123.992L124.318 24.5084H41.4889L41.1631 28.4677Z" fill="#EBEBEB"/>
<path opacity="0.6" d="M41.1631 30.7016H123.992L124.318 26.7417H41.4889L41.1631 30.7016Z" fill="#EBEBEB"/>
<path opacity="0.6" d="M41.1631 32.9349H123.992L124.318 28.9756H41.4889L41.1631 32.9349Z" fill="#EBEBEB"/>
<path opacity="0.6" d="M41.1631 35.1683H123.992L124.318 31.209H41.4889L41.1631 35.1683Z" fill="#EBEBEB"/>
<path opacity="0.6" d="M41.1631 37.4021H123.992L124.318 33.4429H41.4889L41.1631 37.4021Z" fill="#EBEBEB"/>
<path d="M57.7199 131.246H60.5835L60.5835 99.3286H57.7199L57.7199 131.246Z" fill="#F5F5F5"/>
<path d="M58.0887 131.224H58.8976L58.8976 99.3064H58.0887L58.0887 131.224Z" fill="#FAFAFA"/>
<path d="M59.2364 131.224H59.5533L59.5533 99.3065H59.2364L59.2364 131.224Z" fill="#FAFAFA"/>
<path d="M69.7515 133.191H48.5519V133.191C48.5519 132.483 48.8333 131.803 49.3342 131.302C49.835 130.802 50.5143 130.52 51.2227 130.52H67.0807C67.789 130.52 68.4684 130.802 68.9692 131.302C69.4701 131.803 69.7515 132.483 69.7515 133.191V133.191Z" fill="#F0F0F0"/>
<path d="M54.0058 119.143C54.224 119.142 54.4332 119.055 54.5875 118.901C54.7418 118.746 54.8288 118.537 54.8294 118.319V97.3926C54.8288 97.1743 54.7418 96.9652 54.5875 96.8109C54.4332 96.6565 54.224 96.5695 54.0058 96.5689V96.5689C53.7875 96.5696 53.5784 96.6566 53.4241 96.8109C53.2698 96.9652 53.1828 97.1743 53.1821 97.3926V118.319C53.1828 118.537 53.2698 118.746 53.4241 118.901C53.5784 119.055 53.7875 119.142 54.0058 119.143V119.143Z" fill="#F0F0F0"/>
<path d="M46.3344 106.915H71.9693L69.0206 89.0009H49.2831L46.3344 106.915Z" fill="#E0E0E0"/>
<path d="M150.292 224C214.666 224 266.852 220.952 266.852 217.193C266.852 213.433 214.666 210.385 150.292 210.385C85.9177 210.385 33.7322 213.433 33.7322 217.193C33.7322 220.952 85.9177 224 150.292 224Z" fill="#F5F5F5"/>
<path d="M62.5918 88.6162L61.9921 88.6594L62.7905 99.7458L63.3902 99.7027L62.5918 88.6162Z" fill="#407BFF"/>
<path d="M63.8023 105.427L63.2026 105.471L63.5031 109.641L64.1028 109.598L63.8023 105.427Z" fill="#407BFF"/>
<path d="M203.02 156.429H74.2756C72.8425 156.403 71.4696 155.849 70.4216 154.871C69.3735 153.893 68.7246 152.562 68.5999 151.134L62.274 63.286C62.2153 62.6082 62.2992 61.9256 62.5202 61.2821C62.7412 60.6387 63.0944 60.0486 63.5572 59.5499C64.02 59.0512 64.5821 58.6549 65.2073 58.3865C65.8325 58.1181 66.5069 57.9836 67.1873 57.9916H195.932C197.365 58.0169 198.738 58.5718 199.786 59.5495C200.834 60.5271 201.483 61.8582 201.607 63.286L207.933 151.134C207.992 151.812 207.908 152.495 207.687 153.138C207.466 153.782 207.113 154.372 206.65 154.87C206.187 155.369 205.625 155.765 205 156.034C204.375 156.302 203.7 156.437 203.02 156.429V156.429Z" fill="#407BFF"/>
<path d="M203.514 156.429H74.7697C73.3367 156.403 71.9637 155.849 70.9157 154.871C69.8676 153.893 69.2187 152.562 69.094 151.134L62.7682 63.286C62.7095 62.6082 62.7933 61.9256 63.0143 61.2821C63.2353 60.6387 63.5886 60.0486 64.0514 59.5499C64.5142 59.0512 65.0763 58.6549 65.7014 58.3865C66.3266 58.1181 67.0011 57.9836 67.6814 57.9916H196.426C197.859 58.0169 199.232 58.5718 200.28 59.5495C201.328 60.5271 201.977 61.8582 202.102 63.286L208.427 151.134C208.486 151.812 208.402 152.495 208.181 153.138C207.96 153.782 207.607 154.372 207.144 154.87C206.681 155.369 206.119 155.765 205.494 156.034C204.869 156.302 204.195 156.437 203.514 156.429V156.429Z" fill="#407BFF"/>
<path opacity="0.5" d="M203.514 156.429H74.7697C73.3367 156.403 71.9637 155.849 70.9157 154.871C69.8676 153.893 69.2187 152.562 69.094 151.134L62.7682 63.286C62.7095 62.6082 62.7933 61.9256 63.0143 61.2821C63.2353 60.6387 63.5886 60.0486 64.0514 59.5499C64.5142 59.0512 65.0763 58.6549 65.7014 58.3865C66.3266 58.1181 67.0011 57.9836 67.6814 57.9916H196.426C197.859 58.0169 199.232 58.5718 200.28 59.5495C201.328 60.5271 201.977 61.8582 202.102 63.286L208.427 151.134C208.486 151.812 208.402 152.495 208.181 153.138C207.96 153.782 207.607 154.372 207.144 154.87C206.681 155.369 206.119 155.765 205.494 156.034C204.869 156.302 204.195 156.437 203.514 156.429V156.429Z" fill="#009ADD"/>
<path d="M196.616 60.6388H67.8719C67.7263 60.6388 67.5825 60.6447 67.4406 60.6564C64.1496 60.9274 64.8218 65.9332 68.1434 65.9332H197.107C200.429 65.9332 200.38 60.9274 197.05 60.6564C196.907 60.6447 196.762 60.6389 196.616 60.6388Z" fill="#005BAE"/>
<path d="M71.2249 63.286C71.2389 63.4415 71.22 63.5982 71.1696 63.7459C71.1191 63.8936 71.0381 64.0291 70.9319 64.1435C70.8257 64.258 70.6967 64.3488 70.5531 64.4102C70.4096 64.4716 70.2547 64.5021 70.0986 64.4998C69.7698 64.4949 69.4545 64.368 69.2141 64.1436C68.9736 63.9193 68.8251 63.6136 68.7974 63.286C68.7835 63.1305 68.8024 62.9738 68.8528 62.826C68.9033 62.6783 68.9843 62.5428 69.0905 62.4284C69.1967 62.314 69.3257 62.2231 69.4693 62.1618C69.6128 62.1004 69.7677 62.0699 69.9238 62.0722C70.2526 62.0771 70.5678 62.204 70.8083 62.4283C71.0487 62.6526 71.1972 62.9583 71.2249 63.286V63.286Z" fill="#FAFAFA"/>
<path d="M75.3537 63.286C75.3677 63.4415 75.3488 63.5982 75.2983 63.7459C75.2479 63.8936 75.1669 64.0291 75.0607 64.1435C74.9545 64.258 74.8254 64.3488 74.6819 64.4102C74.5383 64.4716 74.3835 64.5021 74.2274 64.4998C73.8986 64.4949 73.5833 64.368 73.3429 64.1436C73.1024 63.9193 72.9539 63.6136 72.9262 63.286C72.9123 63.1305 72.9311 62.9738 72.9816 62.826C73.0321 62.6783 73.1131 62.5428 73.2193 62.4284C73.3255 62.314 73.4545 62.2231 73.5981 62.1618C73.7416 62.1004 73.8965 62.0699 74.0526 62.0722C74.3814 62.0771 74.6966 62.204 74.9371 62.4283C75.1775 62.6526 75.326 62.9583 75.3537 63.286V63.286Z" fill="#FAFAFA"/>
<path d="M79.4824 63.286C79.4964 63.4415 79.4775 63.5981 79.427 63.7459C79.3766 63.8936 79.2956 64.0291 79.1894 64.1435C79.0832 64.258 78.9542 64.3488 78.8106 64.4102C78.667 64.4716 78.5122 64.5021 78.3561 64.4998C78.0273 64.4949 77.712 64.368 77.4715 64.1436C77.2311 63.9193 77.0826 63.6136 77.0549 63.286C77.0409 63.1305 77.0598 62.9738 77.1103 62.826C77.1608 62.6783 77.2418 62.5428 77.348 62.4284C77.4542 62.314 77.5832 62.2231 77.7268 62.1618C77.8703 62.1004 78.0252 62.0699 78.1813 62.0722C78.5101 62.0771 78.8253 62.204 79.0658 62.4283C79.3062 62.6526 79.4547 62.9583 79.4824 63.286V63.286Z" fill="#FAFAFA"/>
<path d="M200.101 147.661H76.9201C76.4001 147.653 75.9016 147.453 75.5213 147.098C75.1411 146.743 74.9062 146.26 74.8624 145.742L69.6602 73.4977C69.6382 73.2518 69.668 73.004 69.7479 72.7704C69.8277 72.5368 69.9558 72.3226 70.1237 72.1416C70.2916 71.9607 70.4957 71.817 70.7227 71.72C70.9497 71.6229 71.1946 71.5747 71.4414 71.5783H194.622C195.142 71.586 195.641 71.7867 196.021 72.1415C196.401 72.4962 196.636 72.9796 196.68 73.4977L201.882 145.742C201.904 145.987 201.874 146.235 201.794 146.469C201.715 146.702 201.587 146.917 201.419 147.098C201.251 147.279 201.047 147.422 200.82 147.519C200.593 147.616 200.348 147.665 200.101 147.661V147.661Z" fill="white"/>
<path d="M148.206 120.141L146.2 92.2947L140.124 88.6378H123.409L125.678 120.141H148.206Z" fill="white"/>
<path d="M148.206 120.432H125.678C125.604 120.432 125.533 120.404 125.48 120.354C125.426 120.304 125.393 120.235 125.387 120.161L123.119 88.6587C123.116 88.6188 123.121 88.5787 123.135 88.541C123.148 88.5033 123.169 88.4686 123.196 88.4393C123.224 88.41 123.257 88.3867 123.293 88.3707C123.33 88.3547 123.369 88.3465 123.41 88.3464H140.124C140.177 88.3465 140.229 88.3609 140.275 88.3883L146.351 92.0453C146.391 92.0694 146.424 92.1028 146.449 92.1425C146.473 92.1823 146.488 92.2274 146.491 92.274L148.496 120.119C148.499 120.159 148.494 120.199 148.48 120.237C148.467 120.275 148.446 120.31 148.419 120.339C148.392 120.368 148.359 120.392 148.322 120.408C148.285 120.424 148.246 120.432 148.206 120.432V120.432ZM125.949 119.849H147.893L145.921 92.4667L140.044 88.9291H123.723L125.949 119.849Z" fill="#208BEE"/>
<path d="M142.355 93.7741C142.299 93.7741 142.245 93.7581 142.198 93.7281C142.151 93.698 142.114 93.6552 142.09 93.6046L139.86 88.7595C139.834 88.703 139.826 88.6395 139.839 88.5785C139.852 88.5175 139.884 88.4622 139.93 88.4207C139.976 88.3791 140.035 88.3535 140.097 88.3477C140.159 88.3418 140.221 88.356 140.275 88.3881L146.351 92.0455C146.399 92.0745 146.437 92.1168 146.462 92.1673C146.487 92.2178 146.496 92.2744 146.489 92.3302C146.483 92.386 146.46 92.4386 146.424 92.4817C146.388 92.5249 146.34 92.5566 146.286 92.5732L142.441 93.761C142.413 93.7697 142.384 93.7741 142.355 93.7741V93.7741ZM140.784 89.3751L142.513 93.1291L145.492 92.2088L140.784 89.3751Z" fill="#407BFF"/>
<path d="M132.839 102.831C132.854 102.994 132.834 103.159 132.781 103.314C132.728 103.468 132.643 103.61 132.532 103.73C132.421 103.85 132.285 103.946 132.135 104.01C131.984 104.074 131.822 104.106 131.658 104.104C131.314 104.099 130.983 103.966 130.731 103.731C130.479 103.495 130.323 103.175 130.294 102.831C130.279 102.668 130.299 102.504 130.352 102.349C130.405 102.194 130.49 102.052 130.601 101.932C130.713 101.812 130.848 101.717 130.998 101.653C131.149 101.588 131.311 101.556 131.475 101.559C131.82 101.564 132.15 101.697 132.402 101.932C132.655 102.167 132.81 102.488 132.839 102.831V102.831Z" fill="#208BEE"/>
<path d="M141.097 102.831C141.111 102.994 141.092 103.159 141.039 103.314C140.986 103.468 140.901 103.61 140.789 103.73C140.678 103.85 140.543 103.946 140.392 104.01C140.242 104.074 140.079 104.106 139.916 104.104C139.571 104.099 139.24 103.966 138.988 103.731C138.736 103.495 138.58 103.175 138.551 102.831C138.537 102.668 138.556 102.504 138.609 102.349C138.662 102.194 138.747 102.052 138.859 101.932C138.97 101.812 139.105 101.717 139.256 101.652C139.406 101.588 139.569 101.556 139.732 101.559C140.077 101.564 140.408 101.697 140.66 101.932C140.912 102.167 141.068 102.488 141.097 102.831Z" fill="#208BEE"/>
<path d="M143.426 111.085C143.353 111.085 143.282 111.057 143.228 111.007C143.174 110.957 143.141 110.888 143.136 110.815C142.988 108.768 139.779 107.104 135.982 107.104C133.466 107.104 131.207 107.852 130.087 109.056C129.857 109.277 129.678 109.545 129.56 109.841C129.441 110.137 129.388 110.454 129.402 110.773C129.407 110.85 129.381 110.926 129.331 110.984C129.28 111.042 129.209 111.078 129.132 111.084C129.055 111.089 128.979 111.064 128.921 111.014C128.862 110.963 128.826 110.892 128.82 110.815C128.801 110.417 128.867 110.019 129.011 109.648C129.156 109.276 129.377 108.939 129.66 108.659C130.887 107.34 133.31 106.521 135.982 106.521C140.148 106.521 143.545 108.389 143.717 110.773C143.723 110.85 143.697 110.926 143.647 110.984C143.596 111.043 143.524 111.079 143.447 111.084L143.426 111.085Z" fill="#208BEE"/>
<path d="M128.149 100.253C128.092 100.253 128.037 100.236 127.989 100.205C127.942 100.174 127.905 100.13 127.882 100.078C127.859 100.026 127.852 99.9687 127.862 99.9128C127.871 99.8569 127.897 99.805 127.935 99.7634L129.212 98.3879C129.238 98.3598 129.269 98.337 129.304 98.3209C129.339 98.3048 129.377 98.2958 129.415 98.2943C129.453 98.2928 129.491 98.2989 129.527 98.3122C129.563 98.3255 129.596 98.3457 129.624 98.3718C129.652 98.3979 129.675 98.4292 129.691 98.4641C129.707 98.4989 129.716 98.5366 129.717 98.5749C129.719 98.6132 129.713 98.6514 129.699 98.6873C129.686 98.7232 129.665 98.7562 129.639 98.7842L128.363 100.16C128.335 100.189 128.302 100.213 128.266 100.229C128.229 100.245 128.189 100.253 128.149 100.253V100.253Z" fill="#208BEE"/>
<path d="M142.828 100.253C142.754 100.253 142.683 100.225 142.629 100.175L141.154 98.7991C141.098 98.7463 141.065 98.6734 141.062 98.5961C141.059 98.5189 141.087 98.4438 141.14 98.3873C141.193 98.3309 141.266 98.2976 141.343 98.295C141.42 98.2923 141.495 98.3204 141.552 98.3731L143.027 99.7487C143.069 99.7886 143.099 99.8404 143.112 99.8974C143.125 99.9545 143.12 100.014 143.099 100.068C143.077 100.123 143.04 100.17 142.992 100.202C142.943 100.235 142.886 100.253 142.828 100.253V100.253Z" fill="#208BEE"/>
<path d="M212.625 71.0144C213.163 70.7452 213.803 70.3968 214.396 70.0718C214.998 69.7404 215.598 69.3949 216.189 69.0353C217.367 68.3106 218.554 67.5938 219.681 66.7977C221.937 65.2538 224.052 63.513 226.001 61.5959C226.252 61.3661 226.465 61.1115 226.697 60.8688L227.04 60.5007L227.212 60.3169L227.298 60.2248C227.321 60.2004 227.316 60.2057 227.304 60.2198L227.285 60.2492C227.2 60.4094 227.271 60.361 227.304 60.206C227.354 59.9908 227.383 59.7711 227.389 59.5503C227.378 58.2722 227.231 56.9988 226.95 55.7518C226.415 53.0554 225.605 50.2823 224.804 47.5653L227.14 46.5409C228.61 49.1484 229.84 51.8846 230.815 54.7154C231.359 56.247 231.706 57.8415 231.848 59.4607C231.883 59.9641 231.866 60.4698 231.798 60.9698C231.71 61.676 231.458 62.3519 231.063 62.9438L230.963 63.0827L230.885 63.1837L230.793 63.2964L230.607 63.5215L230.236 63.9721C229.986 64.2689 229.748 64.5824 229.481 64.8604C227.426 67.1341 225.133 69.1801 222.64 70.9633C221.416 71.8583 220.164 72.7087 218.863 73.4822C218.216 73.874 217.559 74.2518 216.893 74.6155C216.218 74.9909 215.576 75.3174 214.809 75.6769L212.625 71.0144Z" fill="#FFB573"/>
<path d="M207.279 212.348C207.727 212.336 208.173 212.276 208.608 212.167C208.631 212.162 208.651 212.15 208.667 212.133C208.683 212.116 208.694 212.095 208.698 212.072C208.702 212.049 208.699 212.025 208.69 212.004C208.681 211.983 208.666 211.964 208.646 211.952C208.474 211.838 206.945 210.851 206.359 211.116C206.293 211.146 206.236 211.193 206.195 211.252C206.153 211.311 206.128 211.38 206.121 211.452C206.097 211.565 206.103 211.683 206.137 211.794C206.172 211.905 206.235 212.005 206.319 212.085C206.598 212.284 206.938 212.377 207.279 212.348V212.348ZM208.271 211.997C207.394 212.172 206.735 212.142 206.48 211.909C206.425 211.855 206.384 211.787 206.363 211.713C206.342 211.639 206.34 211.56 206.358 211.485C206.358 211.453 206.368 211.422 206.385 211.395C206.403 211.368 206.428 211.347 206.457 211.334C206.766 211.194 207.647 211.62 208.271 211.997V211.997Z" fill="#009ADD"/>
<path d="M208.581 212.171C208.596 212.171 208.612 212.167 208.626 212.161C208.641 212.155 208.654 212.147 208.665 212.136C208.676 212.125 208.685 212.111 208.691 212.097C208.697 212.082 208.7 212.067 208.7 212.051C208.7 211.99 208.693 210.54 208.146 210.055C208.079 209.993 207.999 209.947 207.911 209.919C207.824 209.891 207.732 209.884 207.641 209.896C207.546 209.897 207.455 209.931 207.382 209.991C207.309 210.052 207.259 210.136 207.24 210.229C207.126 210.796 208.041 211.883 208.522 212.155C208.54 212.165 208.56 212.17 208.581 212.171V212.171ZM207.724 210.129C207.822 210.129 207.916 210.167 207.988 210.234C208.304 210.701 208.467 211.255 208.454 211.82C207.975 211.437 207.404 210.621 207.474 210.275C207.485 210.219 207.517 210.151 207.67 210.133C207.688 210.13 207.706 210.129 207.724 210.129V210.129Z" fill="#009ADD"/>
<path d="M208.138 55.9772C207.552 58.9652 206.318 65.0172 208.408 67.011C208.408 67.011 207.591 70.042 202.039 70.042C195.934 70.042 199.122 67.0113 199.122 67.0113C202.454 66.2156 202.368 63.7435 201.787 61.4218L208.138 55.9772Z" fill="#FFB573"/>
<path d="M197.955 68.2155C196.996 68.3453 197.812 65.8628 198.201 65.6056C199.101 65.0113 210.736 64.1691 210.66 65.5812C210.613 66.1888 210.327 67.3749 209.818 67.7778C209.309 68.1808 206.32 66.9635 197.955 68.2155Z" fill="#263238"/>
<path d="M199.85 67.3796C199.089 67.6371 199.161 65.1357 199.421 64.8343C200.02 64.1381 209.438 61.7184 209.718 63.0876C209.826 63.6788 209.878 64.8595 209.555 65.3177C209.231 65.7758 206.464 65.0179 199.85 67.3796Z" fill="#263238"/>
<path d="M196.347 50.5913C196.31 50.5936 196.272 50.5868 196.237 50.5717C196.203 50.5565 196.172 50.5334 196.148 50.5041C195.965 50.2671 195.729 50.0766 195.458 49.9484C195.188 49.8201 194.891 49.7576 194.591 49.766C194.56 49.7694 194.529 49.7666 194.499 49.7578C194.469 49.749 194.441 49.7344 194.416 49.7147C194.392 49.6951 194.371 49.6709 194.356 49.6434C194.341 49.6159 194.332 49.5857 194.329 49.5546C194.325 49.5234 194.328 49.4919 194.337 49.4619C194.346 49.4318 194.36 49.4038 194.38 49.3793C194.399 49.3549 194.424 49.3346 194.451 49.3196C194.479 49.3046 194.509 49.2951 194.54 49.2917C194.918 49.274 195.296 49.3475 195.64 49.5059C195.984 49.6644 196.285 49.9032 196.518 50.2022C196.546 50.2362 196.563 50.2772 196.569 50.3207C196.575 50.3643 196.569 50.4086 196.552 50.4488C196.534 50.4891 196.506 50.5237 196.47 50.5488C196.433 50.5739 196.391 50.5886 196.347 50.5913Z" fill="#263238"/>
<path d="M195.182 53.533C194.913 54.4903 194.514 55.406 193.995 56.2545C194.216 56.3815 194.461 56.4589 194.715 56.4811C194.968 56.5033 195.223 56.4699 195.463 56.3832L195.182 53.533Z" fill="#FF5652"/>
<path d="M195.476 52.8028C195.515 53.207 195.333 53.5557 195.069 53.5818C194.805 53.6078 194.559 53.3011 194.519 52.8969C194.479 52.4927 194.661 52.144 194.925 52.118C195.19 52.092 195.436 52.3986 195.476 52.8028Z" fill="#263238"/>
<path d="M195.044 52.1289L194.046 51.9446C194.046 51.9446 194.619 52.6539 195.044 52.1289Z" fill="#263238"/>
<path d="M214.436 212.051H209.401L209.796 200.39H214.831L214.436 212.051Z" fill="#FFB573"/>
<path d="M209.002 211.468H214.659C214.757 211.466 214.852 211.5 214.926 211.564C215 211.627 215.048 211.716 215.061 211.812L215.706 216.288C215.718 216.401 215.706 216.516 215.671 216.624C215.636 216.732 215.579 216.832 215.502 216.916C215.426 217.001 215.333 217.068 215.229 217.114C215.125 217.16 215.012 217.184 214.899 217.184C212.926 217.15 211.976 217.034 209.488 217.034C207.957 217.034 205.721 217.193 203.608 217.193C201.54 217.193 201.381 215.103 202.262 214.914C206.208 214.065 206.831 212.894 208.161 211.778C208.396 211.579 208.694 211.47 209.002 211.468V211.468Z" fill="#263238"/>
<g opacity="0.2">
<path opacity="0.2" d="M214.832 200.393H209.795L209.594 206.404H214.632L214.832 200.393Z" fill="black"/>
</g>
<path d="M194.401 73.9984C191.32 72.7973 188.3 71.4421 185.354 69.9379C182.31 68.4525 179.411 66.6867 176.695 64.6636C175.967 64.0969 175.28 63.4802 174.638 62.8178C174.47 62.6376 174.302 62.4706 174.138 62.2636C173.949 62.0469 173.773 61.8199 173.609 61.5838C173.168 60.9372 172.892 60.1923 172.805 59.4143C172.737 58.6757 172.838 57.9315 173.1 57.2377C173.31 56.6794 173.594 56.1521 173.946 55.6702C174.529 54.8784 175.214 54.1669 175.983 53.5541C177.346 52.4698 178.817 51.5296 180.374 50.7487C181.119 50.353 181.879 49.9964 182.649 49.6682C183.421 49.3345 184.176 49.0245 184.997 48.7421L186.064 51.0584C183.442 52.711 180.725 54.5275 178.729 56.5646C178.28 57.0165 177.885 57.5188 177.552 58.0617C177.266 58.5348 177.269 58.8891 177.318 58.8615C177.343 58.8613 177.333 58.8507 177.403 58.9202L177.642 59.1771C177.732 59.2846 177.859 59.3949 177.973 59.505C178.483 59.9759 179.026 60.4115 179.595 60.8089C180.837 61.6795 182.128 62.4764 183.463 63.1953C184.818 63.948 186.212 64.6683 187.632 65.3514C190.465 66.7081 193.402 68.0138 196.284 69.2064L194.401 73.9984Z" fill="#FFB573"/>
<path d="M187.546 49.4167L188.378 47.6107L184.594 46.2964C184.594 46.2964 183.415 49.8449 184.82 51.4824C185.409 51.3884 185.966 51.1507 186.441 50.7905C186.916 50.4302 187.296 49.9584 187.546 49.4167V49.4167Z" fill="#FFB573"/>
<path d="M188.378 43.7067L185.353 42.835L184.593 46.2965L188.378 47.6106V43.7067Z" fill="#FFB573"/>
<path d="M227.451 47.7858L227.892 43.5657L223.992 44.4823C223.992 44.4823 223.935 48.4382 225.998 49.0687L227.451 47.7858Z" fill="#FFB573"/>
<path d="M226.014 40.6113L223.472 41.798L223.992 44.4822L227.892 43.5655L226.014 40.6113Z" fill="#FFB573"/>
<path d="M208.93 50.0785C209.113 55.0727 209.298 57.1827 207.041 59.9774C203.647 64.181 197.472 63.3141 195.8 58.4753C194.295 54.1199 194.248 46.6844 198.913 44.2309C199.939 43.6848 201.088 43.4101 202.25 43.433C203.412 43.4558 204.549 43.7754 205.552 44.3613C206.556 44.9473 207.393 45.7802 207.984 46.7808C208.576 47.7815 208.901 48.9167 208.93 50.0785V50.0785Z" fill="#FFB573"/>
<path d="M206.754 59.968C211.657 57.8493 214.881 53.3823 213.52 46.397C212.218 39.7146 207.706 39.0543 205.843 40.4409C203.979 41.8274 199.334 39.7609 196.546 42.1068C191.716 46.1714 196.283 50.553 198.661 53.1497C200.082 56.0702 201.943 62.047 206.754 59.968Z" fill="#263238"/>
<path d="M204.718 45.1981C205.317 45.9653 206.127 46.5404 207.048 46.8525C207.97 47.1646 208.963 47.2 209.904 46.9543C210.846 46.7086 211.695 46.1926 212.346 45.47C212.998 44.7474 213.423 43.8497 213.571 42.8879C213.718 41.9261 213.58 40.9422 213.175 40.0577C212.769 39.1732 212.114 38.4268 211.289 37.9106C210.464 37.3945 209.506 37.1311 208.534 37.1531C207.561 37.1751 206.616 37.4815 205.815 38.0345C204.721 38.8396 203.99 40.0462 203.785 41.3893C203.579 42.7324 203.915 44.1023 204.718 45.1981V45.1981Z" fill="#82B632"/>
<path d="M205.991 40.909C205.284 36.8822 209.094 33.7773 214.189 35.2778C219.283 36.7784 216.589 41.2948 215.544 44.9019C214.499 48.5089 217.241 51.9443 218.387 49.1973C219.533 46.4503 217.607 45.6025 217.607 45.6025C217.607 45.6025 223.016 47.0048 217.991 53.1035C212.965 59.2021 208.415 52.468 209.646 48.4938C210.64 45.2818 206.66 44.7154 205.991 40.909Z" fill="#263238"/>
<path d="M200.899 42.4306C198.573 41.2171 194.634 40.236 192.393 44.0076C191.333 45.7909 191.744 48.2092 191.744 48.2092L198.59 48.6649L200.899 42.4306Z" fill="#263238"/>
<path d="M190.938 47.0263L190.928 47.026C190.888 47.0235 190.851 47.0054 190.825 46.9755C190.799 46.9456 190.785 46.9065 190.788 46.8667C190.794 46.7644 190.959 44.3458 192.419 42.8288C195.947 39.163 200.084 42.2037 201.268 43.2232C201.283 43.236 201.295 43.2517 201.304 43.2694C201.313 43.287 201.319 43.3063 201.321 43.3261C201.322 43.3459 201.32 43.3659 201.314 43.3848C201.307 43.4037 201.298 43.4211 201.285 43.4362C201.272 43.4513 201.256 43.4636 201.238 43.4725C201.22 43.4814 201.201 43.4867 201.181 43.4881C201.161 43.4894 201.141 43.4869 201.123 43.4805C201.104 43.4741 201.086 43.4641 201.071 43.451C199.938 42.4753 195.981 39.5615 192.636 43.0373C191.254 44.4736 191.089 46.8613 191.088 46.8854C191.085 46.9235 191.068 46.9593 191.041 46.9854C191.013 47.0116 190.976 47.0262 190.938 47.0263V47.0263Z" fill="#263238"/>
<path d="M199.499 52.9514C199.469 53.8966 199.118 54.8034 198.504 55.5224C197.673 56.4939 196.721 56.0156 196.502 54.9383C196.305 53.9686 196.501 52.2947 197.551 51.7081C198.585 51.1301 199.507 51.839 199.499 52.9514Z" fill="#FFB573"/>
<path d="M198.417 98.6931C198.417 98.6931 198.738 133.647 201.77 153.126C204.219 168.858 208.752 205.24 208.752 205.24H215.619C215.619 205.24 216.289 170.117 215.046 154.557C211.901 115.182 220.019 107.82 213.468 98.6931H198.417Z" fill="#263238"/>
<path opacity="0.3" d="M202.026 114.551C204.437 125.101 202.513 141.717 201.197 149.034C199.802 137.924 199.099 123.526 198.75 112.976C199.994 110.956 201.173 110.823 202.026 114.551Z" fill="black"/>
<path d="M207.812 205.376H216.558L217.018 202.308L207.762 201.995L207.812 205.376Z" fill="#009ADD"/>
<path d="M210.308 69.1878C211.131 67.5521 215.553 66.5227 217.971 66.5266L219.78 74.561C219.78 74.561 214.964 81.709 212.961 80.9508C210.595 80.0568 208.546 72.6926 210.308 69.1878Z" fill="#82B632"/>
<path d="M205.21 203.411C205.222 203.392 205.228 203.369 205.227 203.347C205.227 203.324 205.22 203.302 205.207 203.283C205.195 203.264 205.177 203.249 205.157 203.24C205.136 203.231 205.113 203.227 205.09 203.231C204.838 203.269 202.612 203.622 202.312 204.258C202.283 204.317 202.27 204.383 202.274 204.448C202.278 204.514 202.299 204.578 202.335 204.633C202.386 204.728 202.46 204.809 202.55 204.869C202.64 204.928 202.743 204.965 202.851 204.976C203.58 205.051 204.633 204.039 205.196 203.43C205.201 203.424 205.206 203.418 205.21 203.411V203.411ZM202.54 204.335C202.746 203.998 203.897 203.687 204.775 203.526C203.982 204.332 203.284 204.781 202.875 204.739C202.805 204.731 202.737 204.707 202.678 204.667C202.62 204.627 202.572 204.573 202.539 204.511C202.524 204.489 202.515 204.463 202.512 204.437C202.51 204.41 202.515 204.383 202.527 204.359C202.531 204.351 202.536 204.343 202.54 204.335V204.335Z" fill="#009ADD"/>
<path d="M205.21 203.411C205.215 203.403 205.218 203.395 205.221 203.387C205.228 203.367 205.229 203.346 205.225 203.326C205.221 203.306 205.212 203.287 205.199 203.271C205.161 203.227 204.27 202.2 203.448 202.146C203.329 202.136 203.21 202.15 203.097 202.189C202.984 202.227 202.88 202.288 202.792 202.368C202.545 202.59 202.567 202.782 202.628 202.904C202.889 203.42 204.488 203.599 205.133 203.466C205.149 203.462 205.164 203.456 205.177 203.446C205.19 203.437 205.202 203.425 205.21 203.411V203.411ZM202.857 202.654C202.883 202.614 202.915 202.577 202.951 202.546C203.016 202.487 203.092 202.442 203.175 202.414C203.257 202.386 203.345 202.376 203.432 202.384C203.989 202.521 204.49 202.828 204.865 203.263C204.152 203.323 202.998 203.106 202.841 202.797C202.83 202.774 202.825 202.748 202.828 202.723C202.831 202.698 202.841 202.674 202.857 202.654V202.654Z" fill="#009ADD"/>
<path d="M210.458 201.278L205.853 203.324L203.8 199.053L201.119 193.459L200.804 192.809L205.404 190.76L205.76 191.492L208.36 196.909L210.458 201.278Z" fill="#FFB573"/>
<path opacity="0.2" d="M208.36 196.909L203.8 199.053L201.119 193.459L205.76 191.492L208.36 196.909Z" fill="black"/>
<path d="M193.016 98.6931C193.016 98.6931 178.304 135.265 182.291 152.487C185.896 168.051 201.832 197.527 201.832 197.527L207.994 194.434C207.994 194.434 198.141 158.852 197.073 151.122C194.993 136.082 208.36 114.851 208.36 98.693L193.016 98.6931Z" fill="#263238"/>
<path d="M205.031 202.684L209.605 199.355C209.683 199.296 209.78 199.268 209.877 199.275C209.974 199.283 210.065 199.326 210.132 199.396L213.288 202.636C213.364 202.72 213.422 202.82 213.457 202.928C213.492 203.036 213.505 203.15 213.493 203.263C213.481 203.377 213.445 203.486 213.388 203.584C213.331 203.683 213.254 203.768 213.162 203.835C211.547 204.968 210.711 205.434 208.699 206.898C207.461 207.798 204.995 209.79 203.286 211.034C201.615 212.25 200.257 210.654 200.857 209.983C203.548 206.975 204.115 205.114 204.533 203.429C204.606 203.13 204.783 202.866 205.031 202.684V202.684Z" fill="#263238"/>
<path d="M201.436 198.831L209.389 195.193L208.368 191.951L199.851 195.837L201.436 198.831Z" fill="#009ADD"/>
<path d="M196.92 68.778C196.26 67.0703 190.514 65.1969 187.631 64.5429L186.364 74.0221C186.364 74.0221 191.072 80.7885 193.139 80.2283C195.58 79.5679 198.335 72.4373 196.92 68.778Z" fill="#82B632"/>
<path d="M190.61 68.3011C190.61 68.3011 188.211 69.146 193.016 98.6931H213.468C213.124 90.3696 213.115 85.237 217.093 68.1552C214.23 67.5639 211.327 67.1815 208.409 67.011C205.317 66.7899 202.213 66.79 199.122 67.0113C195.133 67.3753 190.61 68.3011 190.61 68.3011Z" fill="#82B632"/>
<path d="M213.774 97.4929L214.696 99.3236C214.768 99.4655 214.599 99.6104 214.363 99.6104H192.915C192.731 99.6104 192.578 99.5201 192.567 99.4041L192.382 97.5736C192.369 97.4467 192.529 97.3393 192.731 97.3393H213.441C213.505 97.3339 213.569 97.3452 213.628 97.3721C213.686 97.3991 213.736 97.4407 213.774 97.4929V97.4929Z" fill="#009ADD"/>
<path d="M210.992 99.8086H211.547C211.658 99.8086 211.742 99.7517 211.734 99.6821L211.474 97.3037C211.466 97.2341 211.37 97.1771 211.259 97.1771H210.705C210.594 97.1771 210.51 97.2341 210.518 97.3037L210.778 99.6821C210.785 99.7517 210.882 99.8086 210.992 99.8086Z" fill="#263238"/>
<path d="M197.548 99.8086H198.103C198.213 99.8086 198.297 99.7517 198.29 99.6821L198.03 97.3037C198.022 97.2341 197.925 97.1771 197.815 97.1771H197.26C197.15 97.1771 197.066 97.2341 197.073 97.3037L197.333 99.6821C197.341 99.7517 197.438 99.8086 197.548 99.8086Z" fill="#263238"/>
<path d="M116.759 135.241H115.628L111.333 128.667V135.241H110.202V126.71H111.333L115.64 133.313V126.71H116.759V135.241ZM125.319 131.251C125.319 132.087 125.179 132.817 124.897 133.442C124.616 134.063 124.218 134.538 123.702 134.866C123.187 135.194 122.585 135.358 121.897 135.358C121.226 135.358 120.63 135.194 120.11 134.866C119.591 134.534 119.187 134.063 118.897 133.454C118.612 132.841 118.466 132.132 118.458 131.327V130.712C118.458 129.891 118.601 129.167 118.886 128.538C119.171 127.909 119.573 127.429 120.093 127.097C120.616 126.761 121.214 126.593 121.886 126.593C122.569 126.593 123.171 126.759 123.69 127.091C124.214 127.419 124.616 127.897 124.897 128.526C125.179 129.151 125.319 129.88 125.319 130.712V131.251ZM124.2 130.7C124.2 129.688 123.997 128.913 123.591 128.374C123.185 127.831 122.616 127.559 121.886 127.559C121.175 127.559 120.614 127.831 120.204 128.374C119.798 128.913 119.589 129.663 119.577 130.624V131.251C119.577 132.231 119.782 133.003 120.192 133.565C120.606 134.124 121.175 134.403 121.897 134.403C122.624 134.403 123.187 134.14 123.585 133.612C123.983 133.081 124.188 132.321 124.2 131.333V130.7ZM131.823 132.552L131.987 133.677L132.228 132.663L133.915 126.71H134.864L136.511 132.663L136.745 133.694L136.927 132.546L138.251 126.71H139.382L137.313 135.241H136.288L134.53 129.024L134.396 128.374L134.261 129.024L132.438 135.241H131.413L129.351 126.71H130.476L131.823 132.552ZM147.198 131.251C147.198 132.087 147.058 132.817 146.776 133.442C146.495 134.063 146.097 134.538 145.581 134.866C145.065 135.194 144.464 135.358 143.776 135.358C143.104 135.358 142.509 135.194 141.989 134.866C141.47 134.534 141.065 134.063 140.776 133.454C140.491 132.841 140.345 132.132 140.337 131.327V130.712C140.337 129.891 140.479 129.167 140.765 128.538C141.05 127.909 141.452 127.429 141.972 127.097C142.495 126.761 143.093 126.593 143.765 126.593C144.448 126.593 145.05 126.759 145.569 127.091C146.093 127.419 146.495 127.897 146.776 128.526C147.058 129.151 147.198 129.88 147.198 130.712V131.251ZM146.079 130.7C146.079 129.688 145.876 128.913 145.47 128.374C145.063 127.831 144.495 127.559 143.765 127.559C143.054 127.559 142.493 127.831 142.083 128.374C141.677 128.913 141.468 129.663 141.456 130.624V131.251C141.456 132.231 141.661 133.003 142.071 133.565C142.485 134.124 143.054 134.403 143.776 134.403C144.503 134.403 145.065 134.14 145.464 133.612C145.862 133.081 146.067 132.321 146.079 131.333V130.7ZM152.015 131.79H150.011V135.241H148.88V126.71H151.704C152.665 126.71 153.403 126.929 153.919 127.366C154.438 127.804 154.698 128.44 154.698 129.276C154.698 129.807 154.554 130.27 154.265 130.665C153.979 131.059 153.581 131.354 153.069 131.55L155.073 135.171V135.241H153.866L152.015 131.79ZM150.011 130.87H151.739C152.298 130.87 152.741 130.725 153.069 130.436C153.401 130.147 153.567 129.761 153.567 129.276C153.567 128.749 153.409 128.345 153.093 128.063C152.78 127.782 152.327 127.64 151.733 127.636H150.011V130.87ZM156.28 135.241V126.71H158.688C159.431 126.71 160.087 126.874 160.657 127.202C161.228 127.53 161.667 127.997 161.976 128.602C162.288 129.208 162.446 129.903 162.45 130.688V131.233C162.45 132.038 162.294 132.743 161.981 133.349C161.673 133.954 161.229 134.419 160.651 134.743C160.077 135.067 159.407 135.233 158.642 135.241H156.28ZM157.405 127.636V134.321H158.589C159.456 134.321 160.13 134.052 160.61 133.513C161.095 132.974 161.337 132.206 161.337 131.21V130.712C161.337 129.743 161.108 128.991 160.651 128.456C160.198 127.917 159.554 127.643 158.718 127.636H157.405ZM166.669 131.438C165.704 131.161 165.001 130.821 164.56 130.419C164.122 130.013 163.903 129.513 163.903 128.919C163.903 128.247 164.171 127.692 164.706 127.255C165.245 126.813 165.944 126.593 166.804 126.593C167.39 126.593 167.911 126.706 168.368 126.932C168.829 127.159 169.185 127.472 169.435 127.87C169.688 128.268 169.815 128.704 169.815 129.177H168.685C168.685 128.661 168.521 128.257 168.192 127.964C167.864 127.667 167.401 127.518 166.804 127.518C166.249 127.518 165.815 127.641 165.503 127.888C165.194 128.13 165.04 128.468 165.04 128.901C165.04 129.249 165.187 129.544 165.479 129.786C165.776 130.024 166.278 130.243 166.985 130.442C167.696 130.641 168.251 130.862 168.649 131.104C169.052 131.343 169.349 131.622 169.54 131.942C169.735 132.263 169.833 132.64 169.833 133.073C169.833 133.765 169.563 134.319 169.024 134.737C168.485 135.151 167.765 135.358 166.862 135.358C166.276 135.358 165.729 135.247 165.222 135.024C164.714 134.798 164.321 134.489 164.044 134.099C163.771 133.708 163.634 133.265 163.634 132.768H164.765C164.765 133.284 164.954 133.692 165.333 133.993C165.716 134.29 166.226 134.438 166.862 134.438C167.456 134.438 167.911 134.317 168.228 134.075C168.544 133.833 168.702 133.503 168.702 133.085C168.702 132.667 168.556 132.345 168.263 132.118C167.97 131.888 167.438 131.661 166.669 131.438ZM172.323 132.833H171.345L171.269 126.71H172.405L172.323 132.833ZM171.228 134.696C171.228 134.52 171.28 134.374 171.386 134.257C171.495 134.136 171.655 134.075 171.866 134.075C172.077 134.075 172.237 134.136 172.347 134.257C172.456 134.374 172.511 134.52 172.511 134.696C172.511 134.872 172.456 135.018 172.347 135.136C172.237 135.249 172.077 135.306 171.866 135.306C171.655 135.306 171.495 135.249 171.386 135.136C171.28 135.018 171.228 134.872 171.228 134.696Z" fill="#208BEE"/>
</g>
<defs>
<clipPath id="clip0">
<rect width="300.583" height="224" fill="white"/>
</clipPath>
</defs>
</svg>
