<svg width="16" height="16" viewBox="0 0 16 16" fill="none" xmlns="http://www.w3.org/2000/svg">
<path d="M6.96275 0.0982666H8.27089C8.38717 0.0982666 8.44531 0.153822 8.44531 0.264933V14.9316C8.44531 15.0427 8.38717 15.0983 8.27089 15.0983H6.96275C6.84647 15.0983 6.78833 15.0427 6.78833 14.9316V0.264933C6.78833 0.153822 6.84647 0.0982666 6.96275 0.0982666Z" fill="white"/>
<path d="M0.290507 6.80652H14.9417C15.0579 6.80652 15.1161 6.86207 15.1161 6.97319V8.22319C15.1161 8.3343 15.0579 8.38985 14.9417 8.38985H0.290507C0.174228 8.38985 0.116089 8.3343 0.116089 8.22319V6.97319C0.116089 6.86207 0.174228 6.80652 0.290507 6.80652Z" fill="white"/>
</svg>
