<svg width="14" height="16" viewBox="0 0 14 16" fill="none" xmlns="http://www.w3.org/2000/svg">
<path d="M13.3713 6.24475L11.5248 0.47098C11.5128 0.432345 11.4887 0.3986 11.4561 0.374741C11.4234 0.350882 11.3839 0.338177 11.3434 0.338507H9.766C9.68244 0.338507 9.61111 0.391496 9.58461 0.47098L7.72388 6.24475C7.71777 6.2631 7.71369 6.28348 7.71369 6.30386C7.71369 6.4078 7.79929 6.4934 7.90323 6.4934H9.05269C9.13828 6.4934 9.21165 6.43633 9.23611 6.35481L9.59277 5.09937H11.4066L11.7592 6.35277C11.7816 6.43429 11.857 6.49136 11.9426 6.49136H13.1899C13.2103 6.49136 13.2286 6.48932 13.247 6.48321C13.2959 6.4669 13.3346 6.43429 13.3591 6.38946C13.3815 6.34462 13.3856 6.29367 13.3713 6.24475ZM9.77823 4.03755L10.4467 1.65508H10.5751L11.2293 4.03755H9.77823ZM12.7028 14.0831H10.0615V14.0749L12.764 10.2251C12.7864 10.1924 12.7986 10.1558 12.7986 10.115V9.37315C12.7986 9.26921 12.713 9.18361 12.6091 9.18361H8.45146C8.34752 9.18361 8.26192 9.26921 8.26192 9.37315V10.2495C8.26192 10.3534 8.34752 10.439 8.45146 10.439H10.9501V10.4472L8.23747 14.2971C8.21482 14.3293 8.20272 14.3677 8.20282 14.4071V15.149C8.20282 15.2529 8.28842 15.3385 8.39236 15.3385H12.7008C12.8047 15.3385 12.8903 15.2529 12.8903 15.149V14.2726C12.8906 14.2478 12.8859 14.2232 12.8766 14.2002C12.8673 14.1772 12.8536 14.1563 12.8361 14.1387C12.8187 14.1211 12.7979 14.1071 12.775 14.0975C12.7522 14.088 12.7276 14.0831 12.7028 14.0831ZM4.73815 11.7108H3.18924V0.909159C3.18924 0.819485 3.11587 0.746116 3.02619 0.746116H1.88489C1.79522 0.746116 1.72185 0.819485 1.72185 0.909159V11.7108H0.172933C0.0363844 11.7108 -0.0410613 11.8698 0.0445365 11.9757L2.32714 14.8677C2.3424 14.8872 2.36188 14.903 2.38413 14.9138C2.40637 14.9246 2.4308 14.9303 2.45554 14.9303C2.48029 14.9303 2.50471 14.9246 2.52695 14.9138C2.5492 14.903 2.56869 14.8872 2.58394 14.8677L4.86655 11.9757C4.9501 11.8698 4.8747 11.7108 4.73815 11.7108Z" fill="#009ADD"/>
</svg>
