<svg width="14" height="13" viewBox="0 0 14 13" fill="none" xmlns="http://www.w3.org/2000/svg">
<path d="M13.7946 10.3125H4.01786C3.9442 10.3125 3.88393 10.3728 3.88393 10.4464V11.3839C3.88393 11.4576 3.9442 11.5179 4.01786 11.5179H13.7946C13.8683 11.5179 13.9286 11.4576 13.9286 11.3839V10.4464C13.9286 10.3728 13.8683 10.3125 13.7946 10.3125ZM13.7946 0.803571H4.01786C3.9442 0.803571 3.88393 0.863839 3.88393 0.9375V1.875C3.88393 1.94866 3.9442 2.00893 4.01786 2.00893H13.7946C13.8683 2.00893 13.9286 1.94866 13.9286 1.875V0.9375C13.9286 0.863839 13.8683 0.803571 13.7946 0.803571ZM13.7946 5.55804H4.01786C3.9442 5.55804 3.88393 5.6183 3.88393 5.69196V6.62946C3.88393 6.70313 3.9442 6.76339 4.01786 6.76339H13.7946C13.8683 6.76339 13.9286 6.70313 13.9286 6.62946V5.69196C13.9286 5.6183 13.8683 5.55804 13.7946 5.55804ZM2.00893 9.50893H0.0669643C0.0301339 9.50893 0 9.53906 0 9.57589V10.1451C0 10.1819 0.0301339 10.2121 0.0669643 10.2121H1.27902V10.5552H0.681362C0.644531 10.5552 0.614397 10.5854 0.614397 10.6222V11.1914C0.614397 11.2282 0.614397 10.6222 0.681362 11.2584H1.27902V11.6183H0.0669643C0.0301339 11.6183 0 11.6484 0 11.6853V12.2545C0 12.2913 0.0301339 12.3214 0.0669643 12.3214H2.00893C2.04576 12.3214 2.07589 12.2913 2.07589 12.2545V9.57589C2.07589 9.53906 2.04576 9.50893 2.00893 9.50893ZM0.0669643 0.736607H0.703125V2.74554C0.703125 2.78237 0.733259 2.8125 0.770089 2.8125H1.43973C1.47656 2.8125 1.5067 2.78237 1.5067 2.74554V0.133929C1.5067 0.0602679 1.44643 0 1.37277 0H0.0669643C0.0301339 0 0 0.0301339 0 0.0669643V0.669643C0 0.706473 0.0301339 0.736607 0.0669643 0.736607ZM2.00893 4.75446H0.0669643C0.0301339 4.75446 0 4.7846 0 4.82143V5.42411C0 5.46094 0.0301339 5.49107 0.0669643 5.49107H1.21205L0.0351562 6.79185C0.0129587 6.81679 0.000479061 6.84888 0 6.88225V7.5C0 7.53683 0.0301339 7.56697 0.0669643 7.56697H2.00893C2.04576 7.56697 2.07589 7.53683 2.07589 7.5V6.89732C2.07589 6.86049 2.04576 6.83036 2.00893 6.83036H0.863839L2.04074 5.52958C2.06293 5.50464 2.07541 5.47255 2.07589 5.43917V4.82143C2.07589 4.7846 2.04576 4.75446 2.00893 4.75446Z" fill="#009ADD"/>
</svg>
