<svg width="15" height="10" viewBox="0 0 15 10" fill="none" xmlns="http://www.w3.org/2000/svg">
<path d="M11.9984 7.59225H12.4984V7.11323L13.9967 7.97201L12.5075 8.83044V8.82642V8.32642H12.0075H10.0125C9.65564 8.32642 9.2741 8.16208 8.82876 7.81093C8.3828 7.4593 7.92629 6.96368 7.41952 6.38354L7.41925 6.38322C7.40153 6.36297 7.38378 6.34264 7.36604 6.32232C7.2613 6.20235 7.15704 6.08293 7.06287 5.98435L6.85864 5.76651L6.49388 5.37745L6.12911 5.76651L5.9232 5.98614L5.9231 5.98604L5.915 5.99511L5.57183 6.37946L5.5718 6.37944L5.56823 6.38354C5.0611 6.96409 4.60585 7.45953 4.16048 7.81111C3.71618 8.16185 3.33463 8.32642 2.9752 8.32642H0.828329C0.740653 8.31662 0.659192 8.27572 0.598893 8.21088C0.535328 8.14252 0.5 8.05265 0.5 7.95934C0.5 7.86602 0.535328 7.77615 0.598893 7.7078C0.659192 7.64296 0.740653 7.60205 0.828329 7.59225H2.9752H3.00819L3.04089 7.58792C3.18095 7.56936 3.30283 7.51117 3.3885 7.46284C3.48124 7.41054 3.57301 7.34567 3.65906 7.27845C3.83134 7.14388 4.01435 6.97325 4.18524 6.80266C4.52597 6.46253 4.85505 6.08556 5.01561 5.89948L5.39413 5.4804L5.67577 5.17605L5.99239 4.8339L5.67321 4.49413L5.39378 4.19667L5.01903 3.77729C4.8593 3.58652 4.53048 3.21137 4.18741 2.87243C4.01462 2.70172 3.82911 2.53111 3.65401 2.39655C3.56654 2.32933 3.4734 2.26467 3.37934 2.21263C3.29202 2.16432 3.16977 2.10744 3.03023 2.08938L2.99828 2.08524H2.96606H0.828331C0.740654 2.07544 0.659192 2.03454 0.598893 1.9697C0.535328 1.90134 0.5 1.81147 0.5 1.71816C0.5 1.62484 0.535328 1.53497 0.598893 1.46662C0.659193 1.40178 0.740655 1.36087 0.828332 1.35107H2.9752C3.33463 1.35107 3.71618 1.51564 4.16048 1.86638C4.60585 2.21797 5.0611 2.71341 5.56823 3.29396L5.56821 3.29398L5.57183 3.29803L5.915 3.68238L5.91489 3.68248L5.9232 3.69135L6.12911 3.91098L6.49388 4.30005L6.85864 3.91098L7.06288 3.69313C7.15705 3.59455 7.26131 3.47513 7.36605 3.35516C7.38378 3.33485 7.40153 3.31452 7.41925 3.29428L7.41952 3.29396C7.92629 2.71381 8.3828 2.2182 8.82876 1.86656C9.2741 1.51542 9.65564 1.35107 10.0125 1.35107H11.9984H12.4984V0.865356L13.9907 1.72559L12.4984 2.58812V2.58524V2.08524H11.9984H10.0034H9.97002L9.93692 2.08968C9.79683 2.10848 9.67517 2.1672 9.59039 2.21533C9.4983 2.26761 9.40707 2.3324 9.32151 2.39945C9.15017 2.53372 8.9677 2.70395 8.7971 2.87395C8.47568 3.19426 8.16247 3.54812 7.99468 3.73769C7.9837 3.75011 7.97333 3.76181 7.96363 3.77276L7.9636 3.77273L7.95898 3.77809C7.81674 3.94327 7.6967 4.08018 7.59739 4.18363L7.59733 4.18357L7.59111 4.1903L7.30742 4.49687L6.99317 4.83646L7.30742 5.17605L7.58804 5.47931L7.95849 5.89439C8.12021 6.08981 8.45005 6.46575 8.79291 6.80449C8.966 6.97549 9.1515 7.14609 9.32613 7.28057C9.41335 7.34773 9.50613 7.41233 9.59963 7.46433C9.68615 7.51244 9.80818 7.56976 9.94763 7.58802L9.97995 7.59225H10.0125H11.9984Z" fill="#009ADD" stroke="#009ADD"/>
</svg>
